# xmcd
#
# Track frame offsets:
#	150
#	22471
#	47043
#	64205
#	108377
#	144342
#	164214
#	195269
#	219912
#	258111
#
# Disc length: 3746 seconds
#
# Revision: 1
# Processed by: cddbd v1.5.2PL0 Copyright (c) Steve Scherf et al.
# Submitted via: audiograbber 1.83.01
#
DISCID=910ea00a
DTITLE=William Bligh - Meuterei auf der Bounty
DYEAR=2009
DGENRE=Hörspiel
TTITLE0=An Bord der Bounty
TTITLE1=Von Brotfrüchten und Wörterbüchern
TTITLE2=Kurs West-Südwest in Richtung Südsee
TTITLE3=Unwetter an Bord
TTITLE4=Auf nach Osten, Kurs Tahiti
TTITLE5=Südsee-Träume
TTITLE6=Schwere Wetter und Ehrenwort
TTITLE7=Meuterei auf der Bounty
TTITLE8=Rückkehr in Ketten
TTITLE9=Das Urteil
EXTD=
EXTT0=
EXTT1=
EXTT2=
EXTT3=
EXTT4=
EXTT5=
EXTT6=
EXTT7=
EXTT8=
EXTT9=
PLAYORDER=
